<?xml version="1.0" encoding="UTF-8"?><svg id="Layer_1" xmlns="http://www.w3.org/2000/svg" width="28" height="35.71" viewBox="0 0 28 35.71"><defs><style>.cls-1{fill:#fff;}.cls-2{fill:#dd2e44;}.cls-3{fill:#a0041e;}.cls-4{fill:#ea596e;}.cls-5{fill:#e1e8ed;}</style></defs><path class="cls-3" d="m0,10.96v.14s.01-.08.01-.13h-.01Zm13,11.14c-.15-.07-.29-.15-.41-.25L.57,12.2c-.38-.31-.57-.71-.57-1.11v12.24c0,2.04,1.09,2.48,1.09,2.48l11.57,9.1c.2.16.38.26.53.32-.11-.17-.19-.38-.19-.6,0,0,0-12.54,0-12.53Zm-8.77.36c-.99,0-2.03-1.01-2.32-2.25-.29-1.24.29-2.25,1.28-2.25s2.03,1.01,2.32,2.25c.29,1.24-.29,2.25-1.28,2.25Zm5.58,7.5c-.99,0-2.03-1.01-2.32-2.25-.29-1.24.29-2.25,1.28-2.25s2.03,1.01,2.32,2.25c.29,1.24-.29,2.25-1.28,2.25Z"/><path class="cls-2" d="m27.43,12.12l-12.1,9.73c-.1.08-.21.15-.33.21v12.57c0,.23-.08.44-.2.61.16-.06.33-.16.55-.33,1.82-1.43,11.59-9.1,11.59-9.1,0,0,1.06-.44,1.06-2.48v-12.32c0,.4-.19.8-.57,1.11Zm-7.46,16.73c-.24,1.14-1.12,2.06-1.96,2.06s-1.32-.92-1.08-2.06c.24-1.14,1.12-2.06,1.96-2.06s1.32.92,1.08,2.06Zm3.54-5.27c-.25,1.17-1.18,2.12-2.06,2.12s-1.39-.95-1.14-2.12c.25-1.17,1.18-2.12,2.06-2.12s1.39.95,1.14,2.12Zm3.06-5.1c-.25,1.11-1.16,2.02-2.03,2.02s-1.38-.9-1.12-2.02c.25-1.11,1.16-2.02,2.03-2.02s1.38.9,1.12,2.02Zm1.41-7.51s0,.03,0,.05v-.05s0,0,0,0Z"/><path class="cls-4" d="m27.43,9.9L15.29.46c-.75-.61-1.99-.61-2.74,0L.57,9.99c-.34.27-.51.62-.55.98,0,.04-.01.08-.01.12,0,.4.19.8.57,1.11l12.02,9.65c.12.1.26.18.41.25v12.53c0,.23.08.43.19.6.18.28.47.47.81.47s.62-.19.8-.46c.12-.18.2-.38.2-.61v-12.57c.12-.06.23-.13.33-.21l12.1-9.73c.38-.31.57-.71.57-1.11,0-.02,0-.03,0-.05-.01-.39-.2-.77-.56-1.06Zm-12.93-1.28c1.61,0,2.92,1.04,2.92,2.33s-1.31,2.33-2.92,2.33-2.92-1.04-2.92-2.33,1.31-2.33,2.92-2.33Z"/><ellipse class="cls-1" cx="14.5" cy="10.96" rx="2.92" ry="2.33"/><path class="cls-1" d="m25.45,16.46c-.87,0-1.78.9-2.03,2.02-.25,1.11.25,2.02,1.12,2.02s1.78-.9,2.03-2.02c.25-1.11-.25-2.02-1.12-2.02Zm-3.08,5c-.88,0-1.81.95-2.06,2.12-.25,1.17.25,2.12,1.14,2.12s1.81-.95,2.06-2.12-.25-2.12-1.14-2.12Zm-3.48,5.33c-.84,0-1.72.92-1.96,2.06-.24,1.14.24,2.06,1.08,2.06s1.72-.92,1.96-2.06c.24-1.14-.24-2.06-1.08-2.06Z"/><path class="cls-5" d="m3.19,17.96c-.99,0-1.57,1.01-1.28,2.25.29,1.24,1.32,2.25,2.32,2.25s1.57-1.01,1.28-2.25c-.29-1.24-1.32-2.25-2.32-2.25Zm5.58,7.5c-.99,0-1.57,1.01-1.28,2.25.29,1.24,1.33,2.25,2.32,2.25s1.57-1.01,1.28-2.25c-.29-1.24-1.33-2.25-2.32-2.25Z"/></svg>